<mxfile host="app.diagrams.net" modified="2021-03-01T18:31:22.895Z" agent="5.0 (Windows NT 10.0; Win64; x64) AppleWebKit/537.36 (KHTML, like Gecko) Chrome/88.0.4324.190 Safari/537.36" etag="YkMlYbesBDYsAx7Gq6R2" version="14.4.2" type="github" pages="3">
  <diagram id="1zR2MP0QEiMM9wfyGhYc" name="Pageflow">
    <mxGraphModel dx="1635" dy="866" grid="1" gridSize="10" guides="1" tooltips="1" connect="1" arrows="1" fold="1" page="1" pageScale="1" pageWidth="1400" pageHeight="1700" math="0" shadow="0">
      <root>
        <mxCell id="VA1Rs9wPRr3cq9yrLhW2-0" />
        <mxCell id="VA1Rs9wPRr3cq9yrLhW2-1" parent="VA1Rs9wPRr3cq9yrLhW2-0" />
        <mxCell id="sVdW_lXmzx1T4KK4nYhC-8" style="edgeStyle=orthogonalEdgeStyle;rounded=0;orthogonalLoop=1;jettySize=auto;html=1;exitX=0.5;exitY=1;exitDx=0;exitDy=0;entryX=0.5;entryY=0;entryDx=0;entryDy=0;" parent="VA1Rs9wPRr3cq9yrLhW2-1" source="sVdW_lXmzx1T4KK4nYhC-0" target="sVdW_lXmzx1T4KK4nYhC-3" edge="1">
          <mxGeometry relative="1" as="geometry" />
        </mxCell>
        <mxCell id="sVdW_lXmzx1T4KK4nYhC-10" style="edgeStyle=orthogonalEdgeStyle;rounded=0;orthogonalLoop=1;jettySize=auto;html=1;exitX=0.5;exitY=1;exitDx=0;exitDy=0;" parent="VA1Rs9wPRr3cq9yrLhW2-1" source="sVdW_lXmzx1T4KK4nYhC-0" target="sVdW_lXmzx1T4KK4nYhC-4" edge="1">
          <mxGeometry relative="1" as="geometry" />
        </mxCell>
        <mxCell id="XImln4l_OTh-blPOjgVg-6" style="edgeStyle=orthogonalEdgeStyle;rounded=0;orthogonalLoop=1;jettySize=auto;html=1;exitX=0.5;exitY=1;exitDx=0;exitDy=0;" parent="VA1Rs9wPRr3cq9yrLhW2-1" source="sVdW_lXmzx1T4KK4nYhC-0" target="XImln4l_OTh-blPOjgVg-5" edge="1">
          <mxGeometry relative="1" as="geometry" />
        </mxCell>
        <mxCell id="sVdW_lXmzx1T4KK4nYhC-0" value="IMA Grid&lt;br&gt;(Pre-filtered)" style="rounded=0;whiteSpace=wrap;html=1;" parent="VA1Rs9wPRr3cq9yrLhW2-1" vertex="1">
          <mxGeometry x="520" y="280" width="120" height="60" as="geometry" />
        </mxCell>
        <mxCell id="sVdW_lXmzx1T4KK4nYhC-6" style="edgeStyle=orthogonalEdgeStyle;rounded=0;orthogonalLoop=1;jettySize=auto;html=1;exitX=0.5;exitY=1;exitDx=0;exitDy=0;entryX=0.5;entryY=0;entryDx=0;entryDy=0;" parent="VA1Rs9wPRr3cq9yrLhW2-1" source="sVdW_lXmzx1T4KK4nYhC-1" target="sVdW_lXmzx1T4KK4nYhC-0" edge="1">
          <mxGeometry relative="1" as="geometry" />
        </mxCell>
        <mxCell id="sVdW_lXmzx1T4KK4nYhC-7" style="edgeStyle=orthogonalEdgeStyle;rounded=0;orthogonalLoop=1;jettySize=auto;html=1;exitX=0.5;exitY=1;exitDx=0;exitDy=0;entryX=0.5;entryY=0;entryDx=0;entryDy=0;" parent="VA1Rs9wPRr3cq9yrLhW2-1" source="sVdW_lXmzx1T4KK4nYhC-1" target="sVdW_lXmzx1T4KK4nYhC-2" edge="1">
          <mxGeometry relative="1" as="geometry" />
        </mxCell>
        <mxCell id="XImln4l_OTh-blPOjgVg-0" style="edgeStyle=orthogonalEdgeStyle;rounded=0;orthogonalLoop=1;jettySize=auto;html=1;exitX=0.5;exitY=1;exitDx=0;exitDy=0;entryX=0.25;entryY=0;entryDx=0;entryDy=0;" parent="VA1Rs9wPRr3cq9yrLhW2-1" source="sVdW_lXmzx1T4KK4nYhC-1" target="sVdW_lXmzx1T4KK4nYhC-3" edge="1">
          <mxGeometry relative="1" as="geometry">
            <Array as="points">
              <mxPoint x="580" y="250" />
              <mxPoint x="390" y="250" />
            </Array>
          </mxGeometry>
        </mxCell>
        <mxCell id="sVdW_lXmzx1T4KK4nYhC-1" value="IMA Dashboard" style="rounded=0;whiteSpace=wrap;html=1;" parent="VA1Rs9wPRr3cq9yrLhW2-1" vertex="1">
          <mxGeometry x="520" y="160" width="120" height="60" as="geometry" />
        </mxCell>
        <mxCell id="sVdW_lXmzx1T4KK4nYhC-2" value="IMA Metrics" style="rounded=0;whiteSpace=wrap;html=1;" parent="VA1Rs9wPRr3cq9yrLhW2-1" vertex="1">
          <mxGeometry x="680" y="280" width="120" height="60" as="geometry" />
        </mxCell>
        <mxCell id="dIcFFPLuB2FyIBU6FaS8-1" style="edgeStyle=orthogonalEdgeStyle;rounded=0;orthogonalLoop=1;jettySize=auto;html=1;exitX=0.5;exitY=1;exitDx=0;exitDy=0;entryX=0.5;entryY=0;entryDx=0;entryDy=0;" parent="VA1Rs9wPRr3cq9yrLhW2-1" source="sVdW_lXmzx1T4KK4nYhC-3" target="dIcFFPLuB2FyIBU6FaS8-0" edge="1">
          <mxGeometry relative="1" as="geometry" />
        </mxCell>
        <mxCell id="dIcFFPLuB2FyIBU6FaS8-3" style="edgeStyle=orthogonalEdgeStyle;rounded=0;orthogonalLoop=1;jettySize=auto;html=1;exitX=0.5;exitY=1;exitDx=0;exitDy=0;" parent="VA1Rs9wPRr3cq9yrLhW2-1" source="sVdW_lXmzx1T4KK4nYhC-3" target="dIcFFPLuB2FyIBU6FaS8-2" edge="1">
          <mxGeometry relative="1" as="geometry" />
        </mxCell>
        <mxCell id="sVdW_lXmzx1T4KK4nYhC-3" value="Create System" style="rounded=0;whiteSpace=wrap;html=1;" parent="VA1Rs9wPRr3cq9yrLhW2-1" vertex="1">
          <mxGeometry x="360" y="400" width="120" height="60" as="geometry" />
        </mxCell>
        <mxCell id="dIcFFPLuB2FyIBU6FaS8-7" style="edgeStyle=orthogonalEdgeStyle;rounded=0;orthogonalLoop=1;jettySize=auto;html=1;exitX=0.5;exitY=1;exitDx=0;exitDy=0;" parent="VA1Rs9wPRr3cq9yrLhW2-1" source="sVdW_lXmzx1T4KK4nYhC-4" target="dIcFFPLuB2FyIBU6FaS8-5" edge="1">
          <mxGeometry relative="1" as="geometry" />
        </mxCell>
        <mxCell id="y5j3HDIyI03AB6g0bJ-u-10" style="edgeStyle=orthogonalEdgeStyle;rounded=0;orthogonalLoop=1;jettySize=auto;html=1;exitX=0.5;exitY=1;exitDx=0;exitDy=0;" parent="VA1Rs9wPRr3cq9yrLhW2-1" source="sVdW_lXmzx1T4KK4nYhC-4" target="dCpDDdgAjyThDVNqHsEs-0" edge="1">
          <mxGeometry relative="1" as="geometry" />
        </mxCell>
        <mxCell id="y5j3HDIyI03AB6g0bJ-u-11" style="edgeStyle=orthogonalEdgeStyle;rounded=0;orthogonalLoop=1;jettySize=auto;html=1;exitX=0.5;exitY=1;exitDx=0;exitDy=0;entryX=0.5;entryY=0;entryDx=0;entryDy=0;" parent="VA1Rs9wPRr3cq9yrLhW2-1" source="sVdW_lXmzx1T4KK4nYhC-4" target="y5j3HDIyI03AB6g0bJ-u-8" edge="1">
          <mxGeometry relative="1" as="geometry" />
        </mxCell>
        <mxCell id="y5j3HDIyI03AB6g0bJ-u-12" style="edgeStyle=orthogonalEdgeStyle;rounded=0;orthogonalLoop=1;jettySize=auto;html=1;exitX=0.5;exitY=1;exitDx=0;exitDy=0;entryX=0.5;entryY=0;entryDx=0;entryDy=0;" parent="VA1Rs9wPRr3cq9yrLhW2-1" source="sVdW_lXmzx1T4KK4nYhC-4" target="y5j3HDIyI03AB6g0bJ-u-9" edge="1">
          <mxGeometry relative="1" as="geometry" />
        </mxCell>
        <mxCell id="sVdW_lXmzx1T4KK4nYhC-4" value="View System" style="rounded=0;whiteSpace=wrap;html=1;" parent="VA1Rs9wPRr3cq9yrLhW2-1" vertex="1">
          <mxGeometry x="680" y="400" width="120" height="60" as="geometry" />
        </mxCell>
        <mxCell id="dIcFFPLuB2FyIBU6FaS8-0" value="Save" style="rounded=0;whiteSpace=wrap;html=1;" parent="VA1Rs9wPRr3cq9yrLhW2-1" vertex="1">
          <mxGeometry x="50" y="520" width="120" height="60" as="geometry" />
        </mxCell>
        <mxCell id="dIcFFPLuB2FyIBU6FaS8-2" value="Cancel" style="rounded=0;whiteSpace=wrap;html=1;" parent="VA1Rs9wPRr3cq9yrLhW2-1" vertex="1">
          <mxGeometry x="210" y="520" width="120" height="60" as="geometry" />
        </mxCell>
        <mxCell id="dIcFFPLuB2FyIBU6FaS8-5" value="Edit System Information" style="rounded=0;whiteSpace=wrap;html=1;" parent="VA1Rs9wPRr3cq9yrLhW2-1" vertex="1">
          <mxGeometry x="910" y="590" width="120" height="60" as="geometry" />
        </mxCell>
        <mxCell id="dIcFFPLuB2FyIBU6FaS8-8" value="Approve" style="rounded=0;whiteSpace=wrap;html=1;" parent="VA1Rs9wPRr3cq9yrLhW2-1" vertex="1">
          <mxGeometry x="1230" y="1360" width="120" height="60" as="geometry" />
        </mxCell>
        <mxCell id="XImln4l_OTh-blPOjgVg-9" style="edgeStyle=orthogonalEdgeStyle;rounded=0;orthogonalLoop=1;jettySize=auto;html=1;exitX=0.5;exitY=1;exitDx=0;exitDy=0;entryX=0.5;entryY=0;entryDx=0;entryDy=0;" parent="VA1Rs9wPRr3cq9yrLhW2-1" source="dCpDDdgAjyThDVNqHsEs-0" target="y5j3HDIyI03AB6g0bJ-u-1" edge="1">
          <mxGeometry relative="1" as="geometry" />
        </mxCell>
        <mxCell id="dCpDDdgAjyThDVNqHsEs-0" value="View Initial System Review" style="rounded=0;whiteSpace=wrap;html=1;" parent="VA1Rs9wPRr3cq9yrLhW2-1" vertex="1">
          <mxGeometry x="1070" y="590" width="120" height="60" as="geometry" />
        </mxCell>
        <mxCell id="a4g15a59AB5qbf_7F9rz-8" style="edgeStyle=orthogonalEdgeStyle;rounded=0;orthogonalLoop=1;jettySize=auto;html=1;exitX=0.5;exitY=1;exitDx=0;exitDy=0;" parent="VA1Rs9wPRr3cq9yrLhW2-1" source="y5j3HDIyI03AB6g0bJ-u-1" target="a4g15a59AB5qbf_7F9rz-3" edge="1">
          <mxGeometry relative="1" as="geometry">
            <Array as="points">
              <mxPoint x="1130" y="1020" />
              <mxPoint x="970" y="1020" />
            </Array>
          </mxGeometry>
        </mxCell>
        <mxCell id="a4g15a59AB5qbf_7F9rz-9" style="edgeStyle=orthogonalEdgeStyle;rounded=0;orthogonalLoop=1;jettySize=auto;html=1;exitX=0.5;exitY=1;exitDx=0;exitDy=0;" parent="VA1Rs9wPRr3cq9yrLhW2-1" source="y5j3HDIyI03AB6g0bJ-u-1" target="a4g15a59AB5qbf_7F9rz-2" edge="1">
          <mxGeometry relative="1" as="geometry" />
        </mxCell>
        <mxCell id="y5j3HDIyI03AB6g0bJ-u-1" value="Edit" style="rounded=0;whiteSpace=wrap;html=1;" parent="VA1Rs9wPRr3cq9yrLhW2-1" vertex="1">
          <mxGeometry x="1070" y="710" width="120" height="60" as="geometry" />
        </mxCell>
        <mxCell id="y5j3HDIyI03AB6g0bJ-u-2" value="Add" style="rounded=0;whiteSpace=wrap;html=1;" parent="VA1Rs9wPRr3cq9yrLhW2-1" vertex="1">
          <mxGeometry x="1230" y="710" width="120" height="60" as="geometry" />
        </mxCell>
        <mxCell id="y5j3HDIyI03AB6g0bJ-u-5" value="Submit for Review" style="rounded=0;whiteSpace=wrap;html=1;" parent="VA1Rs9wPRr3cq9yrLhW2-1" vertex="1">
          <mxGeometry x="1550" y="590" width="120" height="60" as="geometry" />
        </mxCell>
        <mxCell id="XImln4l_OTh-blPOjgVg-10" style="edgeStyle=orthogonalEdgeStyle;rounded=0;orthogonalLoop=1;jettySize=auto;html=1;exitX=0.5;exitY=1;exitDx=0;exitDy=0;entryX=0.5;entryY=0;entryDx=0;entryDy=0;" parent="VA1Rs9wPRr3cq9yrLhW2-1" source="y5j3HDIyI03AB6g0bJ-u-8" target="y5j3HDIyI03AB6g0bJ-u-2" edge="1">
          <mxGeometry relative="1" as="geometry" />
        </mxCell>
        <mxCell id="y5j3HDIyI03AB6g0bJ-u-8" value="View Comments" style="rounded=0;whiteSpace=wrap;html=1;" parent="VA1Rs9wPRr3cq9yrLhW2-1" vertex="1">
          <mxGeometry x="1230" y="590" width="120" height="60" as="geometry" />
        </mxCell>
        <mxCell id="7--S6r4mqG4j14K9lxUX-28" style="edgeStyle=orthogonalEdgeStyle;rounded=0;orthogonalLoop=1;jettySize=auto;html=1;exitX=0.5;exitY=1;exitDx=0;exitDy=0;entryX=0.5;entryY=0;entryDx=0;entryDy=0;strokeColor=#000000;" parent="VA1Rs9wPRr3cq9yrLhW2-1" source="y5j3HDIyI03AB6g0bJ-u-9" target="dIcFFPLuB2FyIBU6FaS8-8" edge="1">
          <mxGeometry relative="1" as="geometry">
            <Array as="points">
              <mxPoint x="1450" y="1310" />
              <mxPoint x="1290" y="1310" />
            </Array>
          </mxGeometry>
        </mxCell>
        <mxCell id="7--S6r4mqG4j14K9lxUX-29" style="edgeStyle=orthogonalEdgeStyle;rounded=0;orthogonalLoop=1;jettySize=auto;html=1;exitX=0.5;exitY=1;exitDx=0;exitDy=0;strokeColor=#000000;" parent="VA1Rs9wPRr3cq9yrLhW2-1" source="y5j3HDIyI03AB6g0bJ-u-9" target="7--S6r4mqG4j14K9lxUX-21" edge="1">
          <mxGeometry relative="1" as="geometry" />
        </mxCell>
        <mxCell id="7--S6r4mqG4j14K9lxUX-30" style="edgeStyle=orthogonalEdgeStyle;rounded=0;orthogonalLoop=1;jettySize=auto;html=1;exitX=0.5;exitY=1;exitDx=0;exitDy=0;strokeColor=#000000;" parent="VA1Rs9wPRr3cq9yrLhW2-1" source="y5j3HDIyI03AB6g0bJ-u-9" target="7--S6r4mqG4j14K9lxUX-27" edge="1">
          <mxGeometry relative="1" as="geometry">
            <Array as="points">
              <mxPoint x="1450" y="1310" />
              <mxPoint x="1610" y="1310" />
            </Array>
          </mxGeometry>
        </mxCell>
        <mxCell id="y5j3HDIyI03AB6g0bJ-u-9" value="View Responses" style="rounded=0;whiteSpace=wrap;html=1;" parent="VA1Rs9wPRr3cq9yrLhW2-1" vertex="1">
          <mxGeometry x="1390" y="590" width="120" height="60" as="geometry" />
        </mxCell>
        <mxCell id="XImln4l_OTh-blPOjgVg-7" style="edgeStyle=orthogonalEdgeStyle;rounded=0;orthogonalLoop=1;jettySize=auto;html=1;exitX=0.5;exitY=1;exitDx=0;exitDy=0;entryX=0.25;entryY=0;entryDx=0;entryDy=0;" parent="VA1Rs9wPRr3cq9yrLhW2-1" source="XImln4l_OTh-blPOjgVg-5" target="sVdW_lXmzx1T4KK4nYhC-4" edge="1">
          <mxGeometry relative="1" as="geometry" />
        </mxCell>
        <mxCell id="XImln4l_OTh-blPOjgVg-5" value="Search Systems" style="rounded=0;whiteSpace=wrap;html=1;" parent="VA1Rs9wPRr3cq9yrLhW2-1" vertex="1">
          <mxGeometry x="520" y="400" width="120" height="60" as="geometry" />
        </mxCell>
        <mxCell id="7--S6r4mqG4j14K9lxUX-0" value="IMA Dashboard" style="rounded=0;whiteSpace=wrap;html=1;" parent="VA1Rs9wPRr3cq9yrLhW2-1" vertex="1">
          <mxGeometry x="520" y="160" width="120" height="60" as="geometry" />
        </mxCell>
        <mxCell id="7--S6r4mqG4j14K9lxUX-1" value="IMA Grid&lt;br&gt;(Pre-filtered)" style="rounded=0;whiteSpace=wrap;html=1;" parent="VA1Rs9wPRr3cq9yrLhW2-1" vertex="1">
          <mxGeometry x="520" y="280" width="120" height="60" as="geometry" />
        </mxCell>
        <mxCell id="7--S6r4mqG4j14K9lxUX-2" value="IMA Metrics" style="rounded=0;whiteSpace=wrap;html=1;" parent="VA1Rs9wPRr3cq9yrLhW2-1" vertex="1">
          <mxGeometry x="680" y="280" width="120" height="60" as="geometry" />
        </mxCell>
        <mxCell id="7--S6r4mqG4j14K9lxUX-3" value="View System" style="rounded=0;whiteSpace=wrap;html=1;" parent="VA1Rs9wPRr3cq9yrLhW2-1" vertex="1">
          <mxGeometry x="680" y="400" width="120" height="60" as="geometry" />
        </mxCell>
        <mxCell id="7--S6r4mqG4j14K9lxUX-4" value="Search Systems" style="rounded=0;whiteSpace=wrap;html=1;" parent="VA1Rs9wPRr3cq9yrLhW2-1" vertex="1">
          <mxGeometry x="520" y="400" width="120" height="60" as="geometry" />
        </mxCell>
        <mxCell id="7--S6r4mqG4j14K9lxUX-5" value="Create System" style="rounded=0;whiteSpace=wrap;html=1;" parent="VA1Rs9wPRr3cq9yrLhW2-1" vertex="1">
          <mxGeometry x="360" y="400" width="120" height="60" as="geometry" />
        </mxCell>
        <mxCell id="7--S6r4mqG4j14K9lxUX-7" value="Cancel" style="rounded=0;whiteSpace=wrap;html=1;" parent="VA1Rs9wPRr3cq9yrLhW2-1" vertex="1">
          <mxGeometry x="210" y="520" width="120" height="60" as="geometry" />
        </mxCell>
        <mxCell id="7--S6r4mqG4j14K9lxUX-8" value="Save" style="rounded=0;whiteSpace=wrap;html=1;" parent="VA1Rs9wPRr3cq9yrLhW2-1" vertex="1">
          <mxGeometry x="50" y="520" width="120" height="60" as="geometry" />
        </mxCell>
        <mxCell id="7--S6r4mqG4j14K9lxUX-9" value="IMA Dashboard" style="rounded=0;whiteSpace=wrap;html=1;" parent="VA1Rs9wPRr3cq9yrLhW2-1" vertex="1">
          <mxGeometry x="520" y="160" width="120" height="60" as="geometry" />
        </mxCell>
        <mxCell id="7--S6r4mqG4j14K9lxUX-10" value="IMA Grid&lt;br&gt;(Pre-filtered)" style="rounded=0;whiteSpace=wrap;html=1;" parent="VA1Rs9wPRr3cq9yrLhW2-1" vertex="1">
          <mxGeometry x="520" y="280" width="120" height="60" as="geometry" />
        </mxCell>
        <mxCell id="7--S6r4mqG4j14K9lxUX-11" value="IMA Metrics" style="rounded=0;whiteSpace=wrap;html=1;" parent="VA1Rs9wPRr3cq9yrLhW2-1" vertex="1">
          <mxGeometry x="680" y="280" width="120" height="60" as="geometry" />
        </mxCell>
        <mxCell id="7--S6r4mqG4j14K9lxUX-26" style="edgeStyle=orthogonalEdgeStyle;rounded=0;orthogonalLoop=1;jettySize=auto;html=1;exitX=0.5;exitY=1;exitDx=0;exitDy=0;entryX=0.5;entryY=0;entryDx=0;entryDy=0;strokeColor=#000000;" parent="VA1Rs9wPRr3cq9yrLhW2-1" source="7--S6r4mqG4j14K9lxUX-12" target="y5j3HDIyI03AB6g0bJ-u-5" edge="1">
          <mxGeometry relative="1" as="geometry" />
        </mxCell>
        <mxCell id="tSmkiFdbwWNLfEqzaB45-3" style="edgeStyle=orthogonalEdgeStyle;rounded=0;orthogonalLoop=1;jettySize=auto;html=1;exitX=0.5;exitY=1;exitDx=0;exitDy=0;entryX=0.5;entryY=0;entryDx=0;entryDy=0;" parent="VA1Rs9wPRr3cq9yrLhW2-1" source="7--S6r4mqG4j14K9lxUX-12" target="tSmkiFdbwWNLfEqzaB45-2" edge="1">
          <mxGeometry relative="1" as="geometry" />
        </mxCell>
        <mxCell id="7--S6r4mqG4j14K9lxUX-12" value="View System" style="rounded=0;whiteSpace=wrap;html=1;" parent="VA1Rs9wPRr3cq9yrLhW2-1" vertex="1">
          <mxGeometry x="680" y="400" width="120" height="60" as="geometry" />
        </mxCell>
        <mxCell id="tSmkiFdbwWNLfEqzaB45-11" style="edgeStyle=orthogonalEdgeStyle;rounded=0;orthogonalLoop=1;jettySize=auto;html=1;exitX=0.75;exitY=0;exitDx=0;exitDy=0;entryX=0.75;entryY=1;entryDx=0;entryDy=0;" parent="VA1Rs9wPRr3cq9yrLhW2-1" source="7--S6r4mqG4j14K9lxUX-13" target="7--S6r4mqG4j14K9lxUX-10" edge="1">
          <mxGeometry relative="1" as="geometry" />
        </mxCell>
        <mxCell id="7--S6r4mqG4j14K9lxUX-13" value="Search Systems" style="rounded=0;whiteSpace=wrap;html=1;" parent="VA1Rs9wPRr3cq9yrLhW2-1" vertex="1">
          <mxGeometry x="520" y="400" width="120" height="60" as="geometry" />
        </mxCell>
        <mxCell id="7--S6r4mqG4j14K9lxUX-14" value="Create System" style="rounded=0;whiteSpace=wrap;html=1;" parent="VA1Rs9wPRr3cq9yrLhW2-1" vertex="1">
          <mxGeometry x="360" y="400" width="120" height="60" as="geometry" />
        </mxCell>
        <mxCell id="7--S6r4mqG4j14K9lxUX-16" value="Cancel" style="rounded=0;whiteSpace=wrap;html=1;" parent="VA1Rs9wPRr3cq9yrLhW2-1" vertex="1">
          <mxGeometry x="210" y="520" width="120" height="60" as="geometry" />
        </mxCell>
        <mxCell id="tSmkiFdbwWNLfEqzaB45-0" style="edgeStyle=orthogonalEdgeStyle;rounded=0;orthogonalLoop=1;jettySize=auto;html=1;exitX=0.5;exitY=1;exitDx=0;exitDy=0;" parent="VA1Rs9wPRr3cq9yrLhW2-1" source="7--S6r4mqG4j14K9lxUX-17" edge="1">
          <mxGeometry relative="1" as="geometry">
            <mxPoint x="700" y="460" as="targetPoint" />
            <Array as="points">
              <mxPoint x="110" y="630" />
              <mxPoint x="700" y="630" />
            </Array>
          </mxGeometry>
        </mxCell>
        <mxCell id="7--S6r4mqG4j14K9lxUX-17" value="Save" style="rounded=0;whiteSpace=wrap;html=1;" parent="VA1Rs9wPRr3cq9yrLhW2-1" vertex="1">
          <mxGeometry x="50" y="520" width="120" height="60" as="geometry" />
        </mxCell>
        <mxCell id="7--S6r4mqG4j14K9lxUX-18" value="View Initial System Review Information" style="rounded=0;whiteSpace=wrap;html=1;" parent="VA1Rs9wPRr3cq9yrLhW2-1" vertex="1">
          <mxGeometry x="1070" y="590" width="120" height="60" as="geometry" />
        </mxCell>
        <mxCell id="a4g15a59AB5qbf_7F9rz-6" style="edgeStyle=orthogonalEdgeStyle;rounded=0;orthogonalLoop=1;jettySize=auto;html=1;exitX=0.5;exitY=1;exitDx=0;exitDy=0;entryX=0.5;entryY=0;entryDx=0;entryDy=0;" parent="VA1Rs9wPRr3cq9yrLhW2-1" source="7--S6r4mqG4j14K9lxUX-19" target="a4g15a59AB5qbf_7F9rz-5" edge="1">
          <mxGeometry relative="1" as="geometry">
            <Array as="points">
              <mxPoint x="970" y="880" />
              <mxPoint x="810" y="880" />
            </Array>
          </mxGeometry>
        </mxCell>
        <mxCell id="a4g15a59AB5qbf_7F9rz-7" style="edgeStyle=orthogonalEdgeStyle;rounded=0;orthogonalLoop=1;jettySize=auto;html=1;exitX=0.5;exitY=1;exitDx=0;exitDy=0;entryX=0.5;entryY=0;entryDx=0;entryDy=0;" parent="VA1Rs9wPRr3cq9yrLhW2-1" source="7--S6r4mqG4j14K9lxUX-19" target="a4g15a59AB5qbf_7F9rz-4" edge="1">
          <mxGeometry relative="1" as="geometry" />
        </mxCell>
        <mxCell id="7--S6r4mqG4j14K9lxUX-19" value="Edit System Information" style="rounded=0;whiteSpace=wrap;html=1;" parent="VA1Rs9wPRr3cq9yrLhW2-1" vertex="1">
          <mxGeometry x="910" y="590" width="120" height="60" as="geometry" />
        </mxCell>
        <mxCell id="7--S6r4mqG4j14K9lxUX-20" value="View Comments" style="rounded=0;whiteSpace=wrap;html=1;" parent="VA1Rs9wPRr3cq9yrLhW2-1" vertex="1">
          <mxGeometry x="1230" y="590" width="120" height="60" as="geometry" />
        </mxCell>
        <mxCell id="7--S6r4mqG4j14K9lxUX-21" value="Disapprove" style="rounded=0;whiteSpace=wrap;html=1;" parent="VA1Rs9wPRr3cq9yrLhW2-1" vertex="1">
          <mxGeometry x="1390" y="1360" width="120" height="60" as="geometry" />
        </mxCell>
        <mxCell id="a4g15a59AB5qbf_7F9rz-10" style="edgeStyle=orthogonalEdgeStyle;rounded=0;orthogonalLoop=1;jettySize=auto;html=1;exitX=0.5;exitY=1;exitDx=0;exitDy=0;" parent="VA1Rs9wPRr3cq9yrLhW2-1" source="7--S6r4mqG4j14K9lxUX-22" target="a4g15a59AB5qbf_7F9rz-1" edge="1">
          <mxGeometry relative="1" as="geometry">
            <Array as="points">
              <mxPoint x="1290" y="1160" />
              <mxPoint x="1130" y="1160" />
            </Array>
          </mxGeometry>
        </mxCell>
        <mxCell id="a4g15a59AB5qbf_7F9rz-11" style="edgeStyle=orthogonalEdgeStyle;rounded=0;orthogonalLoop=1;jettySize=auto;html=1;exitX=0.5;exitY=1;exitDx=0;exitDy=0;" parent="VA1Rs9wPRr3cq9yrLhW2-1" source="7--S6r4mqG4j14K9lxUX-22" target="a4g15a59AB5qbf_7F9rz-0" edge="1">
          <mxGeometry relative="1" as="geometry" />
        </mxCell>
        <mxCell id="7--S6r4mqG4j14K9lxUX-22" value="Add" style="rounded=0;whiteSpace=wrap;html=1;" parent="VA1Rs9wPRr3cq9yrLhW2-1" vertex="1">
          <mxGeometry x="1230" y="710" width="120" height="60" as="geometry" />
        </mxCell>
        <mxCell id="7--S6r4mqG4j14K9lxUX-27" value="Edit" style="rounded=0;whiteSpace=wrap;html=1;" parent="VA1Rs9wPRr3cq9yrLhW2-1" vertex="1">
          <mxGeometry x="1550" y="1360" width="120" height="60" as="geometry" />
        </mxCell>
        <mxCell id="a4g15a59AB5qbf_7F9rz-0" value="Cancel" style="rounded=0;whiteSpace=wrap;html=1;" parent="VA1Rs9wPRr3cq9yrLhW2-1" vertex="1">
          <mxGeometry x="1230" y="1200" width="120" height="60" as="geometry" />
        </mxCell>
        <mxCell id="a4g15a59AB5qbf_7F9rz-1" value="Save" style="rounded=0;whiteSpace=wrap;html=1;" parent="VA1Rs9wPRr3cq9yrLhW2-1" vertex="1">
          <mxGeometry x="1070" y="1200" width="120" height="60" as="geometry" />
        </mxCell>
        <mxCell id="a4g15a59AB5qbf_7F9rz-2" value="Cancel" style="rounded=0;whiteSpace=wrap;html=1;" parent="VA1Rs9wPRr3cq9yrLhW2-1" vertex="1">
          <mxGeometry x="1070" y="1060" width="120" height="60" as="geometry" />
        </mxCell>
        <mxCell id="a4g15a59AB5qbf_7F9rz-3" value="Save" style="rounded=0;whiteSpace=wrap;html=1;" parent="VA1Rs9wPRr3cq9yrLhW2-1" vertex="1">
          <mxGeometry x="910" y="1060" width="120" height="60" as="geometry" />
        </mxCell>
        <mxCell id="a4g15a59AB5qbf_7F9rz-4" value="Cancel" style="rounded=0;whiteSpace=wrap;html=1;" parent="VA1Rs9wPRr3cq9yrLhW2-1" vertex="1">
          <mxGeometry x="910" y="920" width="120" height="60" as="geometry" />
        </mxCell>
        <mxCell id="a4g15a59AB5qbf_7F9rz-5" value="Save" style="rounded=0;whiteSpace=wrap;html=1;" parent="VA1Rs9wPRr3cq9yrLhW2-1" vertex="1">
          <mxGeometry x="750" y="920" width="120" height="60" as="geometry" />
        </mxCell>
        <mxCell id="tSmkiFdbwWNLfEqzaB45-9" style="edgeStyle=orthogonalEdgeStyle;rounded=0;orthogonalLoop=1;jettySize=auto;html=1;exitX=0.5;exitY=1;exitDx=0;exitDy=0;entryX=0.5;entryY=0;entryDx=0;entryDy=0;" parent="VA1Rs9wPRr3cq9yrLhW2-1" source="tSmkiFdbwWNLfEqzaB45-2" target="tSmkiFdbwWNLfEqzaB45-4" edge="1">
          <mxGeometry relative="1" as="geometry" />
        </mxCell>
        <mxCell id="tSmkiFdbwWNLfEqzaB45-10" style="edgeStyle=orthogonalEdgeStyle;rounded=0;orthogonalLoop=1;jettySize=auto;html=1;exitX=0.5;exitY=1;exitDx=0;exitDy=0;entryX=0.5;entryY=0;entryDx=0;entryDy=0;" parent="VA1Rs9wPRr3cq9yrLhW2-1" source="tSmkiFdbwWNLfEqzaB45-2" target="tSmkiFdbwWNLfEqzaB45-5" edge="1">
          <mxGeometry relative="1" as="geometry">
            <Array as="points">
              <mxPoint x="810" y="760" />
              <mxPoint x="650" y="760" />
            </Array>
          </mxGeometry>
        </mxCell>
        <mxCell id="tSmkiFdbwWNLfEqzaB45-2" value="Assign" style="rounded=0;whiteSpace=wrap;html=1;" parent="VA1Rs9wPRr3cq9yrLhW2-1" vertex="1">
          <mxGeometry x="750" y="590" width="120" height="60" as="geometry" />
        </mxCell>
        <mxCell id="tSmkiFdbwWNLfEqzaB45-4" value="Cancel" style="rounded=0;whiteSpace=wrap;html=1;" parent="VA1Rs9wPRr3cq9yrLhW2-1" vertex="1">
          <mxGeometry x="750" y="800" width="120" height="60" as="geometry" />
        </mxCell>
        <mxCell id="tSmkiFdbwWNLfEqzaB45-5" value="Save" style="rounded=0;whiteSpace=wrap;html=1;" parent="VA1Rs9wPRr3cq9yrLhW2-1" vertex="1">
          <mxGeometry x="590" y="800" width="120" height="60" as="geometry" />
        </mxCell>
      </root>
    </mxGraphModel>
  </diagram>
  <diagram id="Yn146CHNmKTiM8TK_1wL" name="Workflow">
    <mxGraphModel dx="1635" dy="866" grid="1" gridSize="10" guides="1" tooltips="1" connect="1" arrows="1" fold="1" page="1" pageScale="1" pageWidth="850" pageHeight="1100" math="0" shadow="0">
      <root>
        <mxCell id="0" />
        <mxCell id="1" parent="0" />
        <mxCell id="XPK_h0X7WpHGshuEGnlQ-1" value="IMA Process Workflow" style="text;html=1;strokeColor=none;fillColor=none;align=left;verticalAlign=middle;whiteSpace=wrap;rounded=0;fontSize=18;" parent="1" vertex="1">
          <mxGeometry x="20" y="20" width="200" height="20" as="geometry" />
        </mxCell>
        <mxCell id="cbtD3ZACYqGLWfbixj1p-16" style="edgeStyle=orthogonalEdgeStyle;rounded=0;orthogonalLoop=1;jettySize=auto;html=1;exitX=0.5;exitY=1;exitDx=0;exitDy=0;entryX=0.5;entryY=0;entryDx=0;entryDy=0;" parent="1" source="cbtD3ZACYqGLWfbixj1p-1" target="cbtD3ZACYqGLWfbixj1p-2" edge="1">
          <mxGeometry relative="1" as="geometry" />
        </mxCell>
        <mxCell id="cbtD3ZACYqGLWfbixj1p-1" value="System registers with A&amp;amp;A" style="rounded=0;whiteSpace=wrap;html=1;" parent="1" vertex="1">
          <mxGeometry x="190" y="80" width="120" height="60" as="geometry" />
        </mxCell>
        <mxCell id="cbtD3ZACYqGLWfbixj1p-17" style="edgeStyle=orthogonalEdgeStyle;rounded=0;orthogonalLoop=1;jettySize=auto;html=1;exitX=0.5;exitY=1;exitDx=0;exitDy=0;entryX=0.5;entryY=0;entryDx=0;entryDy=0;" parent="1" source="cbtD3ZACYqGLWfbixj1p-2" target="cbtD3ZACYqGLWfbixj1p-3" edge="1">
          <mxGeometry relative="1" as="geometry" />
        </mxCell>
        <mxCell id="cbtD3ZACYqGLWfbixj1p-2" value="DMO team learns of new system" style="rounded=0;whiteSpace=wrap;html=1;" parent="1" vertex="1">
          <mxGeometry x="190" y="180" width="120" height="60" as="geometry" />
        </mxCell>
        <mxCell id="cbtD3ZACYqGLWfbixj1p-18" style="edgeStyle=orthogonalEdgeStyle;rounded=0;orthogonalLoop=1;jettySize=auto;html=1;exitX=0.5;exitY=1;exitDx=0;exitDy=0;entryX=0.5;entryY=0;entryDx=0;entryDy=0;" parent="1" source="cbtD3ZACYqGLWfbixj1p-3" target="cbtD3ZACYqGLWfbixj1p-4" edge="1">
          <mxGeometry relative="1" as="geometry" />
        </mxCell>
        <mxCell id="cbtD3ZACYqGLWfbixj1p-3" value="DMO added new system to the IMA Process tool" style="rounded=0;whiteSpace=wrap;html=1;" parent="1" vertex="1">
          <mxGeometry x="190" y="280" width="120" height="60" as="geometry" />
        </mxCell>
        <mxCell id="cbtD3ZACYqGLWfbixj1p-19" style="edgeStyle=orthogonalEdgeStyle;rounded=0;orthogonalLoop=1;jettySize=auto;html=1;exitX=0.5;exitY=1;exitDx=0;exitDy=0;entryX=0.5;entryY=0;entryDx=0;entryDy=0;" parent="1" source="cbtD3ZACYqGLWfbixj1p-4" target="cbtD3ZACYqGLWfbixj1p-5" edge="1">
          <mxGeometry relative="1" as="geometry" />
        </mxCell>
        <mxCell id="cbtD3ZACYqGLWfbixj1p-4" value="DMO traffic cop reviews the system and assigns it to DMO" style="rounded=0;whiteSpace=wrap;html=1;" parent="1" vertex="1">
          <mxGeometry x="190" y="380" width="120" height="60" as="geometry" />
        </mxCell>
        <mxCell id="xtFz185AWcqJHEBAqPvH-3" style="edgeStyle=orthogonalEdgeStyle;rounded=0;orthogonalLoop=1;jettySize=auto;html=1;exitX=0.5;exitY=1;exitDx=0;exitDy=0;entryX=0.5;entryY=0;entryDx=0;entryDy=0;" parent="1" source="xtFz185AWcqJHEBAqPvH-9" target="xtFz185AWcqJHEBAqPvH-2" edge="1">
          <mxGeometry relative="1" as="geometry" />
        </mxCell>
        <mxCell id="cbtD3ZACYqGLWfbixj1p-5" value="DMO engages with the system and completes the initial system review" style="rounded=0;whiteSpace=wrap;html=1;" parent="1" vertex="1">
          <mxGeometry x="190" y="480" width="120" height="60" as="geometry" />
        </mxCell>
        <mxCell id="cbtD3ZACYqGLWfbixj1p-21" style="edgeStyle=orthogonalEdgeStyle;rounded=0;orthogonalLoop=1;jettySize=auto;html=1;exitX=0.5;exitY=1;exitDx=0;exitDy=0;" parent="1" source="cbtD3ZACYqGLWfbixj1p-10" target="cbtD3ZACYqGLWfbixj1p-11" edge="1">
          <mxGeometry relative="1" as="geometry" />
        </mxCell>
        <mxCell id="cbtD3ZACYqGLWfbixj1p-10" value="DMO sends a series of questions to the system for review." style="rounded=0;whiteSpace=wrap;html=1;" parent="1" vertex="1">
          <mxGeometry x="190" y="800" width="120" height="60" as="geometry" />
        </mxCell>
        <mxCell id="cbtD3ZACYqGLWfbixj1p-22" style="edgeStyle=orthogonalEdgeStyle;rounded=0;orthogonalLoop=1;jettySize=auto;html=1;exitX=0.5;exitY=1;exitDx=0;exitDy=0;entryX=0.5;entryY=0;entryDx=0;entryDy=0;" parent="1" source="cbtD3ZACYqGLWfbixj1p-11" target="cbtD3ZACYqGLWfbixj1p-12" edge="1">
          <mxGeometry relative="1" as="geometry" />
        </mxCell>
        <mxCell id="cbtD3ZACYqGLWfbixj1p-11" value="System returns the answers to the question to DMO" style="rounded=0;whiteSpace=wrap;html=1;" parent="1" vertex="1">
          <mxGeometry x="190" y="900" width="120" height="60" as="geometry" />
        </mxCell>
        <mxCell id="cbtD3ZACYqGLWfbixj1p-23" style="edgeStyle=orthogonalEdgeStyle;rounded=0;orthogonalLoop=1;jettySize=auto;html=1;exitX=0.5;exitY=1;exitDx=0;exitDy=0;entryX=0.5;entryY=0;entryDx=0;entryDy=0;" parent="1" source="cbtD3ZACYqGLWfbixj1p-12" edge="1">
          <mxGeometry relative="1" as="geometry">
            <mxPoint x="250" y="1100" as="targetPoint" />
          </mxGeometry>
        </mxCell>
        <mxCell id="xtFz185AWcqJHEBAqPvH-5" style="edgeStyle=orthogonalEdgeStyle;rounded=0;orthogonalLoop=1;jettySize=auto;html=1;exitX=1;exitY=0.5;exitDx=0;exitDy=0;entryX=1;entryY=0.5;entryDx=0;entryDy=0;" parent="1" source="cbtD3ZACYqGLWfbixj1p-12" target="cbtD3ZACYqGLWfbixj1p-10" edge="1">
          <mxGeometry relative="1" as="geometry">
            <Array as="points">
              <mxPoint x="380" y="1030" />
              <mxPoint x="380" y="830" />
            </Array>
          </mxGeometry>
        </mxCell>
        <mxCell id="cbtD3ZACYqGLWfbixj1p-12" value="DMO reviews responses and adds comments" style="rounded=0;whiteSpace=wrap;html=1;" parent="1" vertex="1">
          <mxGeometry x="190" y="1000" width="120" height="60" as="geometry" />
        </mxCell>
        <mxCell id="cbtD3ZACYqGLWfbixj1p-29" style="edgeStyle=orthogonalEdgeStyle;rounded=0;orthogonalLoop=1;jettySize=auto;html=1;exitX=0.5;exitY=1;exitDx=0;exitDy=0;entryX=0.5;entryY=0;entryDx=0;entryDy=0;" parent="1" source="cbtD3ZACYqGLWfbixj1p-26" target="cbtD3ZACYqGLWfbixj1p-28" edge="1">
          <mxGeometry relative="1" as="geometry" />
        </mxCell>
        <mxCell id="cbtD3ZACYqGLWfbixj1p-26" value="D/DMO reviews IMA" style="rounded=0;whiteSpace=wrap;html=1;" parent="1" vertex="1">
          <mxGeometry x="190" y="1220" width="120" height="60" as="geometry" />
        </mxCell>
        <mxCell id="cbtD3ZACYqGLWfbixj1p-33" style="edgeStyle=orthogonalEdgeStyle;rounded=0;orthogonalLoop=1;jettySize=auto;html=1;exitX=0.5;exitY=1;exitDx=0;exitDy=0;entryX=0.5;entryY=0;entryDx=0;entryDy=0;" parent="1" source="cbtD3ZACYqGLWfbixj1p-28" target="cbtD3ZACYqGLWfbixj1p-32" edge="1">
          <mxGeometry relative="1" as="geometry" />
        </mxCell>
        <mxCell id="xtFz185AWcqJHEBAqPvH-1" style="edgeStyle=orthogonalEdgeStyle;rounded=0;orthogonalLoop=1;jettySize=auto;html=1;exitX=0;exitY=0.5;exitDx=0;exitDy=0;entryX=0;entryY=0.5;entryDx=0;entryDy=0;" parent="1" source="cbtD3ZACYqGLWfbixj1p-28" target="cbtD3ZACYqGLWfbixj1p-12" edge="1">
          <mxGeometry relative="1" as="geometry">
            <Array as="points">
              <mxPoint x="110" y="1360" />
              <mxPoint x="110" y="1030" />
            </Array>
          </mxGeometry>
        </mxCell>
        <mxCell id="cbtD3ZACYqGLWfbixj1p-28" value="D/DMO approve or rejects" style="rhombus;whiteSpace=wrap;html=1;" parent="1" vertex="1">
          <mxGeometry x="210" y="1320" width="80" height="80" as="geometry" />
        </mxCell>
        <mxCell id="cbtD3ZACYqGLWfbixj1p-31" value="reject" style="text;html=1;strokeColor=none;fillColor=none;align=center;verticalAlign=middle;whiteSpace=wrap;rounded=0;" parent="1" vertex="1">
          <mxGeometry x="140" y="1330" width="40" height="20" as="geometry" />
        </mxCell>
        <mxCell id="cbtD3ZACYqGLWfbixj1p-32" value="IMA is marked complete" style="rounded=0;whiteSpace=wrap;html=1;" parent="1" vertex="1">
          <mxGeometry x="190" y="1440" width="120" height="60" as="geometry" />
        </mxCell>
        <mxCell id="cbtD3ZACYqGLWfbixj1p-34" value="approve" style="text;html=1;strokeColor=none;fillColor=none;align=center;verticalAlign=middle;whiteSpace=wrap;rounded=0;" parent="1" vertex="1">
          <mxGeometry x="260" y="1400" width="40" height="20" as="geometry" />
        </mxCell>
        <mxCell id="xtFz185AWcqJHEBAqPvH-4" style="edgeStyle=orthogonalEdgeStyle;rounded=0;orthogonalLoop=1;jettySize=auto;html=1;exitX=0.5;exitY=1;exitDx=0;exitDy=0;entryX=0.5;entryY=0;entryDx=0;entryDy=0;" parent="1" source="xtFz185AWcqJHEBAqPvH-2" target="cbtD3ZACYqGLWfbixj1p-10" edge="1">
          <mxGeometry relative="1" as="geometry" />
        </mxCell>
        <mxCell id="xtFz185AWcqJHEBAqPvH-6" style="edgeStyle=orthogonalEdgeStyle;rounded=0;orthogonalLoop=1;jettySize=auto;html=1;exitX=1;exitY=0.5;exitDx=0;exitDy=0;entryX=1;entryY=0.5;entryDx=0;entryDy=0;" parent="1" source="xtFz185AWcqJHEBAqPvH-2" target="cbtD3ZACYqGLWfbixj1p-5" edge="1">
          <mxGeometry relative="1" as="geometry">
            <Array as="points">
              <mxPoint x="370" y="720" />
              <mxPoint x="370" y="510" />
            </Array>
          </mxGeometry>
        </mxCell>
        <mxCell id="xtFz185AWcqJHEBAqPvH-2" value="D/DMO Approves /Rejects" style="rhombus;whiteSpace=wrap;html=1;" parent="1" vertex="1">
          <mxGeometry x="210" y="680" width="80" height="80" as="geometry" />
        </mxCell>
        <mxCell id="xtFz185AWcqJHEBAqPvH-8" style="edgeStyle=orthogonalEdgeStyle;rounded=0;orthogonalLoop=1;jettySize=auto;html=1;exitX=0.5;exitY=1;exitDx=0;exitDy=0;entryX=0.5;entryY=0;entryDx=0;entryDy=0;" parent="1" source="xtFz185AWcqJHEBAqPvH-7" target="cbtD3ZACYqGLWfbixj1p-26" edge="1">
          <mxGeometry relative="1" as="geometry" />
        </mxCell>
        <mxCell id="xtFz185AWcqJHEBAqPvH-7" value="DMO Submits for review" style="rounded=0;whiteSpace=wrap;html=1;" parent="1" vertex="1">
          <mxGeometry x="190" y="1100" width="120" height="60" as="geometry" />
        </mxCell>
        <mxCell id="xtFz185AWcqJHEBAqPvH-9" value="D/DMO Reviews" style="rounded=0;whiteSpace=wrap;html=1;" parent="1" vertex="1">
          <mxGeometry x="190" y="580" width="120" height="60" as="geometry" />
        </mxCell>
        <mxCell id="xtFz185AWcqJHEBAqPvH-10" style="edgeStyle=orthogonalEdgeStyle;rounded=0;orthogonalLoop=1;jettySize=auto;html=1;exitX=0.5;exitY=1;exitDx=0;exitDy=0;entryX=0.5;entryY=0;entryDx=0;entryDy=0;" parent="1" source="cbtD3ZACYqGLWfbixj1p-5" target="xtFz185AWcqJHEBAqPvH-9" edge="1">
          <mxGeometry relative="1" as="geometry">
            <mxPoint x="250" y="540" as="sourcePoint" />
            <mxPoint x="250" y="610" as="targetPoint" />
          </mxGeometry>
        </mxCell>
        <mxCell id="efReGdY9lqjWUHzjwBxh-1" value="Feedback&amp;nbsp;loop" style="text;html=1;strokeColor=none;fillColor=none;align=left;verticalAlign=middle;whiteSpace=wrap;rounded=0;" parent="1" vertex="1">
          <mxGeometry x="390" y="920" width="110" height="20" as="geometry" />
        </mxCell>
        <mxCell id="efReGdY9lqjWUHzjwBxh-3" value="approve" style="text;html=1;strokeColor=none;fillColor=none;align=center;verticalAlign=middle;whiteSpace=wrap;rounded=0;" parent="1" vertex="1">
          <mxGeometry x="260" y="760" width="40" height="20" as="geometry" />
        </mxCell>
        <mxCell id="efReGdY9lqjWUHzjwBxh-4" value="reject" style="text;html=1;strokeColor=none;fillColor=none;align=center;verticalAlign=middle;whiteSpace=wrap;rounded=0;" parent="1" vertex="1">
          <mxGeometry x="310" y="690" width="40" height="20" as="geometry" />
        </mxCell>
      </root>
    </mxGraphModel>
  </diagram>
  <diagram id="4IDpjJggr54TvQPseYHX" name="DB Structure">
    <mxGraphModel dx="1635" dy="866" grid="1" gridSize="10" guides="1" tooltips="1" connect="1" arrows="1" fold="1" page="1" pageScale="1" pageWidth="850" pageHeight="1100" math="0" shadow="0">
      <root>
        <mxCell id="D3warceBw_G89JDhgmTV-0" />
        <mxCell id="D3warceBw_G89JDhgmTV-1" parent="D3warceBw_G89JDhgmTV-0" />
        <mxCell id="D3warceBw_G89JDhgmTV-2" value="A &lt;b&gt;System&lt;/b&gt;&amp;nbsp;has many &lt;b&gt;Reviews&lt;/b&gt;&lt;br&gt;Each &lt;b&gt;Review&lt;/b&gt;&amp;nbsp;has a &lt;b&gt;ReviewTemplate&lt;/b&gt;&lt;br&gt;A &lt;b&gt;Review &lt;/b&gt;has many &lt;b&gt;Answers&lt;/b&gt;&lt;br&gt;A &lt;b&gt;ReviewTemplate&lt;/b&gt;&amp;nbsp;has many &lt;b&gt;Steps&lt;/b&gt;&lt;br&gt;A &lt;b&gt;Step&lt;/b&gt;&amp;nbsp;has many &lt;b&gt;Questions&lt;/b&gt;" style="text;html=1;strokeColor=none;fillColor=none;align=center;verticalAlign=middle;whiteSpace=wrap;rounded=0;" parent="D3warceBw_G89JDhgmTV-1" vertex="1">
          <mxGeometry x="140" y="70" width="260" height="120" as="geometry" />
        </mxCell>
        <mxCell id="D3warceBw_G89JDhgmTV-3" value="System" style="swimlane;fontStyle=0;childLayout=stackLayout;horizontal=1;startSize=26;fillColor=none;horizontalStack=0;resizeParent=1;resizeParentMax=0;resizeLast=0;collapsible=1;marginBottom=0;" parent="D3warceBw_G89JDhgmTV-1" vertex="1">
          <mxGeometry x="40" y="260" width="150" height="338" as="geometry" />
        </mxCell>
        <mxCell id="D3warceBw_G89JDhgmTV-4" value="+ id: int" style="text;strokeColor=none;fillColor=none;align=left;verticalAlign=top;spacingLeft=4;spacingRight=4;overflow=hidden;rotatable=0;points=[[0,0.5],[1,0.5]];portConstraint=eastwest;" parent="D3warceBw_G89JDhgmTV-3" vertex="1">
          <mxGeometry y="26" width="150" height="26" as="geometry" />
        </mxCell>
        <mxCell id="D3warceBw_G89JDhgmTV-5" value="+ status: string" style="text;strokeColor=none;fillColor=none;align=left;verticalAlign=top;spacingLeft=4;spacingRight=4;overflow=hidden;rotatable=0;points=[[0,0.5],[1,0.5]];portConstraint=eastwest;" parent="D3warceBw_G89JDhgmTV-3" vertex="1">
          <mxGeometry y="52" width="150" height="26" as="geometry" />
        </mxCell>
        <mxCell id="DGReHYmwEBmS-QQR3lWa-1" value="+ aaNumber: int" style="text;strokeColor=none;fillColor=none;align=left;verticalAlign=top;spacingLeft=4;spacingRight=4;overflow=hidden;rotatable=0;points=[[0,0.5],[1,0.5]];portConstraint=eastwest;" parent="D3warceBw_G89JDhgmTV-3" vertex="1">
          <mxGeometry y="78" width="150" height="26" as="geometry" />
        </mxCell>
        <mxCell id="DGReHYmwEBmS-QQR3lWa-0" value="+ overlay: string" style="text;strokeColor=none;fillColor=none;align=left;verticalAlign=top;spacingLeft=4;spacingRight=4;overflow=hidden;rotatable=0;points=[[0,0.5],[1,0.5]];portConstraint=eastwest;" parent="D3warceBw_G89JDhgmTV-3" vertex="1">
          <mxGeometry y="104" width="150" height="26" as="geometry" />
        </mxCell>
        <mxCell id="DGReHYmwEBmS-QQR3lWa-2" value="+ systemOwner: string" style="text;strokeColor=none;fillColor=none;align=left;verticalAlign=top;spacingLeft=4;spacingRight=4;overflow=hidden;rotatable=0;points=[[0,0.5],[1,0.5]];portConstraint=eastwest;" parent="D3warceBw_G89JDhgmTV-3" vertex="1">
          <mxGeometry y="130" width="150" height="26" as="geometry" />
        </mxCell>
        <mxCell id="DGReHYmwEBmS-QQR3lWa-3" value="+ dataOwner: string" style="text;strokeColor=none;fillColor=none;align=left;verticalAlign=top;spacingLeft=4;spacingRight=4;overflow=hidden;rotatable=0;points=[[0,0.5],[1,0.5]];portConstraint=eastwest;" parent="D3warceBw_G89JDhgmTV-3" vertex="1">
          <mxGeometry y="156" width="150" height="26" as="geometry" />
        </mxCell>
        <mxCell id="D3warceBw_G89JDhgmTV-6" value="+ assignedIssm: string" style="text;strokeColor=none;fillColor=none;align=left;verticalAlign=top;spacingLeft=4;spacingRight=4;overflow=hidden;rotatable=0;points=[[0,0.5],[1,0.5]];portConstraint=eastwest;" parent="D3warceBw_G89JDhgmTV-3" vertex="1">
          <mxGeometry y="182" width="150" height="26" as="geometry" />
        </mxCell>
        <mxCell id="DGReHYmwEBmS-QQR3lWa-7" value="+ primaryPOCs: string[]" style="text;strokeColor=none;fillColor=none;align=left;verticalAlign=top;spacingLeft=4;spacingRight=4;overflow=hidden;rotatable=0;points=[[0,0.5],[1,0.5]];portConstraint=eastwest;" parent="D3warceBw_G89JDhgmTV-3" vertex="1">
          <mxGeometry y="208" width="150" height="26" as="geometry" />
        </mxCell>
        <mxCell id="DGReHYmwEBmS-QQR3lWa-6" value="+ links: string[]" style="text;strokeColor=none;fillColor=none;align=left;verticalAlign=top;spacingLeft=4;spacingRight=4;overflow=hidden;rotatable=0;points=[[0,0.5],[1,0.5]];portConstraint=eastwest;" parent="D3warceBw_G89JDhgmTV-3" vertex="1">
          <mxGeometry y="234" width="150" height="26" as="geometry" />
        </mxCell>
        <mxCell id="DGReHYmwEBmS-QQR3lWa-5" value="+ notes: string" style="text;strokeColor=none;fillColor=none;align=left;verticalAlign=top;spacingLeft=4;spacingRight=4;overflow=hidden;rotatable=0;points=[[0,0.5],[1,0.5]];portConstraint=eastwest;" parent="D3warceBw_G89JDhgmTV-3" vertex="1">
          <mxGeometry y="260" width="150" height="26" as="geometry" />
        </mxCell>
        <mxCell id="DGReHYmwEBmS-QQR3lWa-25" value="+ modUser: string" style="text;strokeColor=none;fillColor=none;align=left;verticalAlign=top;spacingLeft=4;spacingRight=4;overflow=hidden;rotatable=0;points=[[0,0.5],[1,0.5]];portConstraint=eastwest;" parent="D3warceBw_G89JDhgmTV-3" vertex="1">
          <mxGeometry y="286" width="150" height="26" as="geometry" />
        </mxCell>
        <mxCell id="DGReHYmwEBmS-QQR3lWa-26" value="+ modTime: string" style="text;strokeColor=none;fillColor=none;align=left;verticalAlign=top;spacingLeft=4;spacingRight=4;overflow=hidden;rotatable=0;points=[[0,0.5],[1,0.5]];portConstraint=eastwest;" parent="D3warceBw_G89JDhgmTV-3" vertex="1">
          <mxGeometry y="312" width="150" height="26" as="geometry" />
        </mxCell>
        <mxCell id="D3warceBw_G89JDhgmTV-7" value="ReviewTemplate" style="swimlane;fontStyle=0;childLayout=stackLayout;horizontal=1;startSize=26;fillColor=none;horizontalStack=0;resizeParent=1;resizeParentMax=0;resizeLast=0;collapsible=1;marginBottom=0;" parent="D3warceBw_G89JDhgmTV-1" vertex="1">
          <mxGeometry x="550" y="260" width="140" height="156" as="geometry" />
        </mxCell>
        <mxCell id="D3warceBw_G89JDhgmTV-8" value="+ id: int" style="text;strokeColor=none;fillColor=none;align=left;verticalAlign=top;spacingLeft=4;spacingRight=4;overflow=hidden;rotatable=0;points=[[0,0.5],[1,0.5]];portConstraint=eastwest;" parent="D3warceBw_G89JDhgmTV-7" vertex="1">
          <mxGeometry y="26" width="140" height="26" as="geometry" />
        </mxCell>
        <mxCell id="D3warceBw_G89JDhgmTV-9" value="+ reviewId: int" style="text;strokeColor=none;fillColor=none;align=left;verticalAlign=top;spacingLeft=4;spacingRight=4;overflow=hidden;rotatable=0;points=[[0,0.5],[1,0.5]];portConstraint=eastwest;" parent="D3warceBw_G89JDhgmTV-7" vertex="1">
          <mxGeometry y="52" width="140" height="26" as="geometry" />
        </mxCell>
        <mxCell id="DGReHYmwEBmS-QQR3lWa-17" value="+ revision: int" style="text;strokeColor=none;fillColor=none;align=left;verticalAlign=top;spacingLeft=4;spacingRight=4;overflow=hidden;rotatable=0;points=[[0,0.5],[1,0.5]];portConstraint=eastwest;" parent="D3warceBw_G89JDhgmTV-7" vertex="1">
          <mxGeometry y="78" width="140" height="26" as="geometry" />
        </mxCell>
        <mxCell id="DGReHYmwEBmS-QQR3lWa-38" value="+ modUser: string" style="text;strokeColor=none;fillColor=none;align=left;verticalAlign=top;spacingLeft=4;spacingRight=4;overflow=hidden;rotatable=0;points=[[0,0.5],[1,0.5]];portConstraint=eastwest;" parent="D3warceBw_G89JDhgmTV-7" vertex="1">
          <mxGeometry y="104" width="140" height="26" as="geometry" />
        </mxCell>
        <mxCell id="DGReHYmwEBmS-QQR3lWa-39" value="+ modTime: string" style="text;strokeColor=none;fillColor=none;align=left;verticalAlign=top;spacingLeft=4;spacingRight=4;overflow=hidden;rotatable=0;points=[[0,0.5],[1,0.5]];portConstraint=eastwest;" parent="D3warceBw_G89JDhgmTV-7" vertex="1">
          <mxGeometry y="130" width="140" height="26" as="geometry" />
        </mxCell>
        <mxCell id="D3warceBw_G89JDhgmTV-11" value="Answers" style="swimlane;fontStyle=0;childLayout=stackLayout;horizontal=1;startSize=26;fillColor=none;horizontalStack=0;resizeParent=1;resizeParentMax=0;resizeLast=0;collapsible=1;marginBottom=0;" parent="D3warceBw_G89JDhgmTV-1" vertex="1">
          <mxGeometry x="300" y="520" width="140" height="234" as="geometry" />
        </mxCell>
        <mxCell id="D3warceBw_G89JDhgmTV-12" value="+ id: int" style="text;strokeColor=none;fillColor=none;align=left;verticalAlign=top;spacingLeft=4;spacingRight=4;overflow=hidden;rotatable=0;points=[[0,0.5],[1,0.5]];portConstraint=eastwest;" parent="D3warceBw_G89JDhgmTV-11" vertex="1">
          <mxGeometry y="26" width="140" height="26" as="geometry" />
        </mxCell>
        <mxCell id="DGReHYmwEBmS-QQR3lWa-56" value="+ reviewId: int" style="text;strokeColor=none;fillColor=none;align=left;verticalAlign=top;spacingLeft=4;spacingRight=4;overflow=hidden;rotatable=0;points=[[0,0.5],[1,0.5]];portConstraint=eastwest;" parent="D3warceBw_G89JDhgmTV-11" vertex="1">
          <mxGeometry y="52" width="140" height="26" as="geometry" />
        </mxCell>
        <mxCell id="DGReHYmwEBmS-QQR3lWa-57" value="+ systemId: int" style="text;strokeColor=none;fillColor=none;align=left;verticalAlign=top;spacingLeft=4;spacingRight=4;overflow=hidden;rotatable=0;points=[[0,0.5],[1,0.5]];portConstraint=eastwest;" parent="D3warceBw_G89JDhgmTV-11" vertex="1">
          <mxGeometry y="78" width="140" height="26" as="geometry" />
        </mxCell>
        <mxCell id="DGReHYmwEBmS-QQR3lWa-55" value="+ stepId: int" style="text;strokeColor=none;fillColor=none;align=left;verticalAlign=top;spacingLeft=4;spacingRight=4;overflow=hidden;rotatable=0;points=[[0,0.5],[1,0.5]];portConstraint=eastwest;" parent="D3warceBw_G89JDhgmTV-11" vertex="1">
          <mxGeometry y="104" width="140" height="26" as="geometry" />
        </mxCell>
        <mxCell id="D3warceBw_G89JDhgmTV-13" value="+ questionId: int" style="text;strokeColor=none;fillColor=none;align=left;verticalAlign=top;spacingLeft=4;spacingRight=4;overflow=hidden;rotatable=0;points=[[0,0.5],[1,0.5]];portConstraint=eastwest;" parent="D3warceBw_G89JDhgmTV-11" vertex="1">
          <mxGeometry y="130" width="140" height="26" as="geometry" />
        </mxCell>
        <mxCell id="DGReHYmwEBmS-QQR3lWa-33" value="+ answer: string" style="text;strokeColor=none;fillColor=none;align=left;verticalAlign=top;spacingLeft=4;spacingRight=4;overflow=hidden;rotatable=0;points=[[0,0.5],[1,0.5]];portConstraint=eastwest;" parent="D3warceBw_G89JDhgmTV-11" vertex="1">
          <mxGeometry y="156" width="140" height="26" as="geometry" />
        </mxCell>
        <mxCell id="DGReHYmwEBmS-QQR3lWa-34" value="+ modUser: string" style="text;strokeColor=none;fillColor=none;align=left;verticalAlign=top;spacingLeft=4;spacingRight=4;overflow=hidden;rotatable=0;points=[[0,0.5],[1,0.5]];portConstraint=eastwest;" parent="D3warceBw_G89JDhgmTV-11" vertex="1">
          <mxGeometry y="182" width="140" height="26" as="geometry" />
        </mxCell>
        <mxCell id="DGReHYmwEBmS-QQR3lWa-35" value="+ modTime: string" style="text;strokeColor=none;fillColor=none;align=left;verticalAlign=top;spacingLeft=4;spacingRight=4;overflow=hidden;rotatable=0;points=[[0,0.5],[1,0.5]];portConstraint=eastwest;" parent="D3warceBw_G89JDhgmTV-11" vertex="1">
          <mxGeometry y="208" width="140" height="26" as="geometry" />
        </mxCell>
        <mxCell id="D3warceBw_G89JDhgmTV-15" value="Review" style="swimlane;fontStyle=0;childLayout=stackLayout;horizontal=1;startSize=26;fillColor=none;horizontalStack=0;resizeParent=1;resizeParentMax=0;resizeLast=0;collapsible=1;marginBottom=0;" parent="D3warceBw_G89JDhgmTV-1" vertex="1">
          <mxGeometry x="300" y="260" width="140" height="182" as="geometry" />
        </mxCell>
        <mxCell id="D3warceBw_G89JDhgmTV-16" value="+ id: int" style="text;strokeColor=none;fillColor=none;align=left;verticalAlign=top;spacingLeft=4;spacingRight=4;overflow=hidden;rotatable=0;points=[[0,0.5],[1,0.5]];portConstraint=eastwest;" parent="D3warceBw_G89JDhgmTV-15" vertex="1">
          <mxGeometry y="26" width="140" height="26" as="geometry" />
        </mxCell>
        <mxCell id="D3warceBw_G89JDhgmTV-17" value="+ systemId: int" style="text;strokeColor=none;fillColor=none;align=left;verticalAlign=top;spacingLeft=4;spacingRight=4;overflow=hidden;rotatable=0;points=[[0,0.5],[1,0.5]];portConstraint=eastwest;" parent="D3warceBw_G89JDhgmTV-15" vertex="1">
          <mxGeometry y="52" width="140" height="26" as="geometry" />
        </mxCell>
        <mxCell id="DGReHYmwEBmS-QQR3lWa-13" value="+ templateId: int" style="text;strokeColor=none;fillColor=none;align=left;verticalAlign=top;spacingLeft=4;spacingRight=4;overflow=hidden;rotatable=0;points=[[0,0.5],[1,0.5]];portConstraint=eastwest;" parent="D3warceBw_G89JDhgmTV-15" vertex="1">
          <mxGeometry y="78" width="140" height="26" as="geometry" />
        </mxCell>
        <mxCell id="D3warceBw_G89JDhgmTV-18" value="+ status: string" style="text;strokeColor=none;fillColor=none;align=left;verticalAlign=top;spacingLeft=4;spacingRight=4;overflow=hidden;rotatable=0;points=[[0,0.5],[1,0.5]];portConstraint=eastwest;" parent="D3warceBw_G89JDhgmTV-15" vertex="1">
          <mxGeometry y="104" width="140" height="26" as="geometry" />
        </mxCell>
        <mxCell id="DGReHYmwEBmS-QQR3lWa-14" value="+ modUser: string" style="text;strokeColor=none;fillColor=none;align=left;verticalAlign=top;spacingLeft=4;spacingRight=4;overflow=hidden;rotatable=0;points=[[0,0.5],[1,0.5]];portConstraint=eastwest;" parent="D3warceBw_G89JDhgmTV-15" vertex="1">
          <mxGeometry y="130" width="140" height="26" as="geometry" />
        </mxCell>
        <mxCell id="DGReHYmwEBmS-QQR3lWa-15" value="+ modTime: string" style="text;strokeColor=none;fillColor=none;align=left;verticalAlign=top;spacingLeft=4;spacingRight=4;overflow=hidden;rotatable=0;points=[[0,0.5],[1,0.5]];portConstraint=eastwest;" parent="D3warceBw_G89JDhgmTV-15" vertex="1">
          <mxGeometry y="156" width="140" height="26" as="geometry" />
        </mxCell>
        <mxCell id="D3warceBw_G89JDhgmTV-19" value="Question" style="swimlane;fontStyle=0;childLayout=stackLayout;horizontal=1;startSize=26;fillColor=none;horizontalStack=0;resizeParent=1;resizeParentMax=0;resizeLast=0;collapsible=1;marginBottom=0;" parent="D3warceBw_G89JDhgmTV-1" vertex="1">
          <mxGeometry x="550" y="728" width="140" height="182" as="geometry" />
        </mxCell>
        <mxCell id="D3warceBw_G89JDhgmTV-20" value="+ id: int" style="text;strokeColor=none;fillColor=none;align=left;verticalAlign=top;spacingLeft=4;spacingRight=4;overflow=hidden;rotatable=0;points=[[0,0.5],[1,0.5]];portConstraint=eastwest;" parent="D3warceBw_G89JDhgmTV-19" vertex="1">
          <mxGeometry y="26" width="140" height="26" as="geometry" />
        </mxCell>
        <mxCell id="D3warceBw_G89JDhgmTV-21" value="+ stepId: int" style="text;strokeColor=none;fillColor=none;align=left;verticalAlign=top;spacingLeft=4;spacingRight=4;overflow=hidden;rotatable=0;points=[[0,0.5],[1,0.5]];portConstraint=eastwest;" parent="D3warceBw_G89JDhgmTV-19" vertex="1">
          <mxGeometry y="52" width="140" height="26" as="geometry" />
        </mxCell>
        <mxCell id="DGReHYmwEBmS-QQR3lWa-52" value="+ revision: int" style="text;strokeColor=none;fillColor=none;align=left;verticalAlign=top;spacingLeft=4;spacingRight=4;overflow=hidden;rotatable=0;points=[[0,0.5],[1,0.5]];portConstraint=eastwest;" parent="D3warceBw_G89JDhgmTV-19" vertex="1">
          <mxGeometry y="78" width="140" height="26" as="geometry" />
        </mxCell>
        <mxCell id="DGReHYmwEBmS-QQR3lWa-21" value="+ questionText: string" style="text;strokeColor=none;fillColor=none;align=left;verticalAlign=top;spacingLeft=4;spacingRight=4;overflow=hidden;rotatable=0;points=[[0,0.5],[1,0.5]];portConstraint=eastwest;" parent="D3warceBw_G89JDhgmTV-19" vertex="1">
          <mxGeometry y="104" width="140" height="26" as="geometry" />
        </mxCell>
        <mxCell id="DGReHYmwEBmS-QQR3lWa-50" value="+ order: int" style="text;strokeColor=none;fillColor=none;align=left;verticalAlign=top;spacingLeft=4;spacingRight=4;overflow=hidden;rotatable=0;points=[[0,0.5],[1,0.5]];portConstraint=eastwest;" parent="D3warceBw_G89JDhgmTV-19" vertex="1">
          <mxGeometry y="130" width="140" height="26" as="geometry" />
        </mxCell>
        <mxCell id="D3warceBw_G89JDhgmTV-22" value="+ options?: string[]" style="text;strokeColor=none;fillColor=none;align=left;verticalAlign=top;spacingLeft=4;spacingRight=4;overflow=hidden;rotatable=0;points=[[0,0.5],[1,0.5]];portConstraint=eastwest;" parent="D3warceBw_G89JDhgmTV-19" vertex="1">
          <mxGeometry y="156" width="140" height="26" as="geometry" />
        </mxCell>
        <mxCell id="DGReHYmwEBmS-QQR3lWa-9" style="edgeStyle=orthogonalEdgeStyle;rounded=0;orthogonalLoop=1;jettySize=auto;html=1;exitX=1;exitY=0.5;exitDx=0;exitDy=0;strokeColor=none;" parent="D3warceBw_G89JDhgmTV-1" source="DGReHYmwEBmS-QQR3lWa-10" target="D3warceBw_G89JDhgmTV-17" edge="1">
          <mxGeometry relative="1" as="geometry" />
        </mxCell>
        <mxCell id="DGReHYmwEBmS-QQR3lWa-10" value="" style="line;strokeWidth=2;html=1;" parent="D3warceBw_G89JDhgmTV-1" vertex="1">
          <mxGeometry x="190" y="320" width="110" height="10" as="geometry" />
        </mxCell>
        <mxCell id="DGReHYmwEBmS-QQR3lWa-11" style="edgeStyle=orthogonalEdgeStyle;rounded=0;orthogonalLoop=1;jettySize=auto;html=1;exitX=1;exitY=0.5;exitDx=0;exitDy=0;strokeColor=none;" parent="D3warceBw_G89JDhgmTV-1" source="D3warceBw_G89JDhgmTV-5" target="DGReHYmwEBmS-QQR3lWa-10" edge="1">
          <mxGeometry relative="1" as="geometry">
            <mxPoint x="190" y="325" as="sourcePoint" />
            <mxPoint x="300" y="325" as="targetPoint" />
          </mxGeometry>
        </mxCell>
        <mxCell id="DGReHYmwEBmS-QQR3lWa-12" value="" style="line;strokeWidth=2;html=1;" parent="D3warceBw_G89JDhgmTV-1" vertex="1">
          <mxGeometry x="440" y="320" width="110" height="10" as="geometry" />
        </mxCell>
        <mxCell id="DGReHYmwEBmS-QQR3lWa-27" value="Step" style="swimlane;fontStyle=0;childLayout=stackLayout;horizontal=1;startSize=26;fillColor=none;horizontalStack=0;resizeParent=1;resizeParentMax=0;resizeLast=0;collapsible=1;marginBottom=0;" parent="D3warceBw_G89JDhgmTV-1" vertex="1">
          <mxGeometry x="550" y="494" width="140" height="156" as="geometry" />
        </mxCell>
        <mxCell id="DGReHYmwEBmS-QQR3lWa-28" value="+ id: int" style="text;strokeColor=none;fillColor=none;align=left;verticalAlign=top;spacingLeft=4;spacingRight=4;overflow=hidden;rotatable=0;points=[[0,0.5],[1,0.5]];portConstraint=eastwest;" parent="DGReHYmwEBmS-QQR3lWa-27" vertex="1">
          <mxGeometry y="26" width="140" height="26" as="geometry" />
        </mxCell>
        <mxCell id="DGReHYmwEBmS-QQR3lWa-29" value="+ templateId: int" style="text;strokeColor=none;fillColor=none;align=left;verticalAlign=top;spacingLeft=4;spacingRight=4;overflow=hidden;rotatable=0;points=[[0,0.5],[1,0.5]];portConstraint=eastwest;" parent="DGReHYmwEBmS-QQR3lWa-27" vertex="1">
          <mxGeometry y="52" width="140" height="26" as="geometry" />
        </mxCell>
        <mxCell id="DGReHYmwEBmS-QQR3lWa-51" value="+ revision: int" style="text;strokeColor=none;fillColor=none;align=left;verticalAlign=top;spacingLeft=4;spacingRight=4;overflow=hidden;rotatable=0;points=[[0,0.5],[1,0.5]];portConstraint=eastwest;" parent="DGReHYmwEBmS-QQR3lWa-27" vertex="1">
          <mxGeometry y="78" width="140" height="26" as="geometry" />
        </mxCell>
        <mxCell id="DGReHYmwEBmS-QQR3lWa-37" value="+ stepName: string" style="text;strokeColor=none;fillColor=none;align=left;verticalAlign=top;spacingLeft=4;spacingRight=4;overflow=hidden;rotatable=0;points=[[0,0.5],[1,0.5]];portConstraint=eastwest;" parent="DGReHYmwEBmS-QQR3lWa-27" vertex="1">
          <mxGeometry y="104" width="140" height="26" as="geometry" />
        </mxCell>
        <mxCell id="DGReHYmwEBmS-QQR3lWa-49" value="+ order: int" style="text;strokeColor=none;fillColor=none;align=left;verticalAlign=top;spacingLeft=4;spacingRight=4;overflow=hidden;rotatable=0;points=[[0,0.5],[1,0.5]];portConstraint=eastwest;" parent="DGReHYmwEBmS-QQR3lWa-27" vertex="1">
          <mxGeometry y="130" width="140" height="26" as="geometry" />
        </mxCell>
        <mxCell id="DGReHYmwEBmS-QQR3lWa-40" value="" style="line;strokeWidth=2;direction=south;html=1;" parent="D3warceBw_G89JDhgmTV-1" vertex="1">
          <mxGeometry x="365" y="442" width="10" height="78" as="geometry" />
        </mxCell>
        <mxCell id="DGReHYmwEBmS-QQR3lWa-41" value="" style="line;strokeWidth=2;direction=south;html=1;" parent="D3warceBw_G89JDhgmTV-1" vertex="1">
          <mxGeometry x="615" y="416" width="10" height="78" as="geometry" />
        </mxCell>
        <mxCell id="DGReHYmwEBmS-QQR3lWa-42" value="" style="line;strokeWidth=2;direction=south;html=1;" parent="D3warceBw_G89JDhgmTV-1" vertex="1">
          <mxGeometry x="615" y="650" width="10" height="78" as="geometry" />
        </mxCell>
        <mxCell id="DGReHYmwEBmS-QQR3lWa-43" value="&lt;b&gt;&lt;font style=&quot;font-size: 14px&quot;&gt;1..*&lt;/font&gt;&lt;/b&gt;" style="text;html=1;strokeColor=none;fillColor=none;align=center;verticalAlign=middle;whiteSpace=wrap;rounded=0;" parent="D3warceBw_G89JDhgmTV-1" vertex="1">
          <mxGeometry x="230" y="300" width="30" height="20" as="geometry" />
        </mxCell>
        <mxCell id="DGReHYmwEBmS-QQR3lWa-45" value="&lt;b&gt;&lt;font style=&quot;font-size: 14px&quot;&gt;1..*&lt;/font&gt;&lt;/b&gt;" style="text;html=1;strokeColor=none;fillColor=none;align=center;verticalAlign=middle;whiteSpace=wrap;rounded=0;" parent="D3warceBw_G89JDhgmTV-1" vertex="1">
          <mxGeometry x="375" y="471" width="30" height="20" as="geometry" />
        </mxCell>
        <mxCell id="DGReHYmwEBmS-QQR3lWa-46" value="&lt;b&gt;&lt;font style=&quot;font-size: 14px&quot;&gt;1..*&lt;/font&gt;&lt;/b&gt;" style="text;html=1;strokeColor=none;fillColor=none;align=center;verticalAlign=middle;whiteSpace=wrap;rounded=0;" parent="D3warceBw_G89JDhgmTV-1" vertex="1">
          <mxGeometry x="625" y="445" width="30" height="20" as="geometry" />
        </mxCell>
        <mxCell id="DGReHYmwEBmS-QQR3lWa-47" value="&lt;b&gt;&lt;font style=&quot;font-size: 14px&quot;&gt;1..*&lt;/font&gt;&lt;/b&gt;" style="text;html=1;strokeColor=none;fillColor=none;align=center;verticalAlign=middle;whiteSpace=wrap;rounded=0;" parent="D3warceBw_G89JDhgmTV-1" vertex="1">
          <mxGeometry x="625" y="679" width="30" height="20" as="geometry" />
        </mxCell>
        <mxCell id="DGReHYmwEBmS-QQR3lWa-48" value="&lt;b&gt;&lt;font style=&quot;font-size: 14px&quot;&gt;1..1&lt;/font&gt;&lt;/b&gt;" style="text;html=1;strokeColor=none;fillColor=none;align=center;verticalAlign=middle;whiteSpace=wrap;rounded=0;" parent="D3warceBw_G89JDhgmTV-1" vertex="1">
          <mxGeometry x="480" y="300" width="30" height="20" as="geometry" />
        </mxCell>
        <mxCell id="DGReHYmwEBmS-QQR3lWa-54" value="SELECT * FROM Step WHERE templateId = # and revision = # ORDER BY order&lt;br&gt;- gets all ordered steps for a certain revision of a review template&lt;br&gt;&lt;br&gt;SELECT * FROM Question WHERE stepId = # and revision = # ORDER BY order&lt;br&gt;- gets all ordered questions for a step of a certain revision&lt;br&gt;&lt;br&gt;SELECT stepId, questionId, answer FROM Answers WHERE questionId IN &lt;br&gt;&amp;nbsp; &amp;nbsp; &amp;nbsp;(SELECT id from Question WHERE questionText = &quot;text of question&quot; AND revision = #)&lt;br&gt;&amp;nbsp; &amp;nbsp; &amp;nbsp;AND reviewId IN &lt;br&gt;&amp;nbsp; &amp;nbsp; &amp;nbsp;(SELECT id from Review WHERE systemId = # AND templateId = # ORDER BY modTime&lt;br&gt;&amp;nbsp; &amp;nbsp; &amp;nbsp; DESCENDING LIMIT 1)&lt;br&gt;- The syntax feels rough to me and could be wrong, but the idea here is getting question/answer data from the most recent review of a certain template type for a system where the question text is the same" style="text;html=1;strokeColor=none;fillColor=none;align=left;verticalAlign=middle;whiteSpace=wrap;rounded=0;" parent="D3warceBw_G89JDhgmTV-1" vertex="1">
          <mxGeometry x="20" y="780" width="510" height="290" as="geometry" />
        </mxCell>
      </root>
    </mxGraphModel>
  </diagram>
</mxfile>
